<?xml version="1.0" encoding="iso-8859-1"?>
<!-- Generator: Adobe Illustrator 19.0.0, SVG Export Plug-In . SVG Version: 6.00 Build 0)  -->
<svg version="1.1" id="Capa_1" xmlns="http://www.w3.org/2000/svg" xmlns:xlink="http://www.w3.org/1999/xlink" x="0px" y="0px"
	 viewBox="0 0 512 512" style="enable-background:new 0 0 512 512;fill:white" xml:space="preserve">
<g>
	<g>
		<path d="M256,0c-5.888,0-10.667,4.779-10.667,10.667v32c0,5.888,4.779,10.667,10.667,10.667s10.667-4.779,10.667-10.667v-32
			C266.667,4.779,261.888,0,256,0z"/>
	</g>
</g>
<g>
	<g>
		<g>
			<path d="M256,214.848c-5.888,0-10.667,4.779-10.667,10.667v60.949c0,5.888,4.779,10.667,10.667,10.667
				s10.667-4.757,10.667-10.667v-60.949C266.667,219.627,261.888,214.848,256,214.848z"/>
			<path d="M256,336.768c-5.888,0-10.667,4.779-10.667,10.667v60.949c0,5.888,4.779,10.667,10.667,10.667
				s10.667-4.779,10.667-10.667v-60.949C266.667,341.547,261.888,336.768,256,336.768z"/>
			<path d="M256,92.949c-5.888,0-10.667,4.779-10.667,10.667v60.949c0,5.888,4.779,10.667,10.667,10.667s10.667-4.779,10.667-10.667
				v-60.949C266.667,97.728,261.888,92.949,256,92.949z"/>
		</g>
	</g>
</g>
<g>
	<g>
		<path d="M256,458.667c-5.888,0-10.667,4.779-10.667,10.667v32c0,5.888,4.779,10.667,10.667,10.667s10.667-4.779,10.667-10.667v-32
			C266.667,463.445,261.888,458.667,256,458.667z"/>
	</g>
</g>
<g>
	<g>
		<path d="M335.04,389.44L179.989,112.107c-2.88-5.12-9.387-6.955-14.528-4.096c-5.141,2.88-6.976,9.387-4.117,14.528
			l155.051,277.333c1.963,3.499,5.589,5.461,9.323,5.461c1.771,0,3.563-0.448,5.227-1.365
			C336.064,401.088,337.92,394.581,335.04,389.44z"/>
	</g>
</g>
<g>
	<g>
		<path d="M362.667,320c-29.397,0-53.333,23.936-53.333,53.333s23.936,53.333,53.333,53.333S416,402.731,416,373.333
			S392.064,320,362.667,320z M362.667,405.333c-17.643,0-32-14.357-32-32c0-17.643,14.357-32,32-32c17.643,0,32,14.357,32,32
			C394.667,390.976,380.309,405.333,362.667,405.333z"/>
	</g>
</g>
<g>
	<g>
		<path d="M346.56,108.032c-5.184-2.901-11.648-1.024-14.528,4.096L176.981,389.461c-2.88,5.163-1.045,11.648,4.096,14.528
			c1.643,0.896,3.435,1.344,5.205,1.344c3.733,0,7.36-1.963,9.323-5.44L350.656,122.56
			C353.536,117.397,351.701,110.912,346.56,108.032z"/>
	</g>
</g>
<g>
	<g>
		<path d="M149.333,320C119.936,320,96,343.936,96,373.333s23.936,53.333,53.333,53.333s53.333-23.936,53.333-53.333
			S178.731,320,149.333,320z M149.333,405.333c-17.643,0-32-14.357-32-32c0-17.643,14.357-32,32-32c17.643,0,32,14.357,32,32
			C181.333,390.976,166.976,405.333,149.333,405.333z"/>
	</g>
</g>
<g>
</g>
<g>
</g>
<g>
</g>
<g>
</g>
<g>
</g>
<g>
</g>
<g>
</g>
<g>
</g>
<g>
</g>
<g>
</g>
<g>
</g>
<g>
</g>
<g>
</g>
<g>
</g>
<g>
</g>
</svg>
